<?xml version="1.0" standalone="no"?>
<!DOCTYPE svg PUBLIC "-//W3C//DTD SVG 20010904//EN"
 "http://www.w3.org/TR/2001/REC-SVG-20010904/DTD/svg10.dtd">
<svg version="1.0" xmlns="http://www.w3.org/2000/svg"
 width="300.000000pt" height="300.000000pt" viewBox="0 0 300.000000 300.000000"
 preserveAspectRatio="xMidYMid meet">
<metadata>
Created by potrace 1.16, written by Peter Selinger 2001-2019
</metadata>
<g transform="translate(0.000000,300.000000) scale(0.100000,-0.100000)"
fill="#000000" stroke="none">
<path d="M9 2996 c-2 -2 -3 -677 -1 -1500 l2 -1496 1490 0 1490 0 1 1470 c1
809 1 1482 2 1498 l1 27 -1490 3 c-820 1 -1492 0 -1495 -2z m1401 -666 l0 -50
-215 0 -215 0 0 -175 0 -175 -130 0 -130 0 0 175 0 175 -215 0 -215 0 0 50 0
50 560 0 560 0 0 -50z m486 -101 c71 -83 136 -160 145 -171 16 -20 21 -16 163
151 l147 171 151 0 152 0 -199 -202 c-110 -111 -215 -217 -233 -235 l-32 -33
-133 0 -133 0 -154 158 c-85 86 -188 192 -229 235 l-76 77 151 0 150 0 130
-151z m-505 -689 c90 -137 166 -250 169 -250 3 0 80 112 170 250 l165 250 174
0 c153 0 172 -2 167 -16 -3 -8 -104 -156 -225 -327 -120 -172 -230 -330 -245
-351 l-26 -39 0 -213 0 -214 -180 0 -180 0 0 216 0 216 -246 351 c-135 193
-248 356 -251 364 -4 10 28 13 169 13 l175 0 164 -250z"/>
</g>
</svg>
